<svg viewBox="0 0 44 43" class="w-5 h-5 mr-2 transform scale-95 fill-current">
<path d="M10.5492 24.3569L18.5585 32.3706L15.3561 35.5752L18.563 38.7821L15.3584 41.9867L9.74922 36.3775L3.33777 42.789L0.133179 39.5844L6.54463 33.1706L0.93546 27.5637L4.14005 24.3591L7.34465 27.5615L10.547 24.3569H10.5492ZM1.3706 0.773438L9.40701 0.780237L36.1882 27.5637L39.3951 24.3591L42.5997 27.5637L36.9928 33.1729L43.402 39.5844L40.1974 42.789L33.7859 36.3775L28.1768 41.9867L24.9722 38.7821L28.1768 35.5752L1.37739 8.77585L1.3706 0.773438ZM34.1349 0.773438L42.1646 0.780237L42.1691 8.76452L32.9837 17.9477L24.9699 9.93622L34.1349 0.773438Z"></path>
</svg>